<?xml version="1.0" encoding="UTF-8" standalone="no"?>
<!-- Created with Inkscape (http://www.inkscape.org/) -->

<svg
   width="150"
   height="214"
   viewBox="0 0 39.687499 56.620833"
   version="1.1"
   id="svg1"
   inkscape:version="1.3.2 (091e20e, 2023-11-25, custom)"
   sodipodi:docname="Thumbnail background.svg"
   xml:space="preserve"
   inkscape:export-filename="..\Thumbnail background.png"
   inkscape:export-xdpi="96"
   inkscape:export-ydpi="96"
   xmlns:inkscape="http://www.inkscape.org/namespaces/inkscape"
   xmlns:sodipodi="http://sodipodi.sourceforge.net/DTD/sodipodi-0.dtd"
   xmlns="http://www.w3.org/2000/svg"
   xmlns:svg="http://www.w3.org/2000/svg"><sodipodi:namedview
     id="namedview1"
     pagecolor="#ffffff"
     bordercolor="#000000"
     borderopacity="0.25"
     inkscape:showpageshadow="2"
     inkscape:pageopacity="0.0"
     inkscape:pagecheckerboard="0"
     inkscape:deskcolor="#d1d1d1"
     inkscape:document-units="mm"
     inkscape:zoom="2.3598131"
     inkscape:cx="75.00594"
     inkscape:cy="107.42376"
     inkscape:window-width="1366"
     inkscape:window-height="697"
     inkscape:window-x="-8"
     inkscape:window-y="-8"
     inkscape:window-maximized="1"
     inkscape:current-layer="layer1"
     inkscape:export-bgcolor="#ffffff00" /><defs
     id="defs1" /><g
     inkscape:label="Camada 1"
     inkscape:groupmode="layer"
     id="layer1"><rect
       style="fill:none;stroke:#008000;stroke-width:2.52307;stroke-dasharray:none;stroke-opacity:1"
       id="rect1"
       width="37.164558"
       height="54.097893"
       x="1.2614708"
       y="1.2614703"
       rx="0.79374999" /><g
       id="g1"
       transform="matrix(0.37207031,0,0,0.37207031,7.9375001,16.404167)"
       style="fill:#ffff00;fill-opacity:1">
	<path
   fill="#231f20"
   d="M 60,0 H 4 C 1.789,0 0,1.789 0,4 v 56 c 0,2.211 1.789,4 4,4 h 56 c 2.211,0 4,-1.789 4,-4 V 4 C 64,1.789 62.211,0 60,0 Z M 8,8 h 48 v 32.688 l -9.113,-9.113 c -1.562,-1.559 -4.094,-1.559 -5.656,0 L 16.805,56 H 8 Z"
   id="path1"
   style="fill:#ffff00;fill-opacity:1" />
	<circle
   fill="#231f20"
   cx="24"
   cy="24"
   r="8"
   id="circle1"
   style="fill:#ffff00;fill-opacity:1" />
</g></g></svg>
