<?xml version="1.0" encoding="UTF-8" standalone="no"?>
<!-- Created with Inkscape (http://www.inkscape.org/) -->

<svg
   width="640"
   height="280"
   viewBox="0 0 169.33333 74.083333"
   version="1.1"
   id="svg1"
   xml:space="preserve"
   inkscape:version="1.3.2 (091e20e, 2023-11-25, custom)"
   sodipodi:docname="TV system selection, NTSC selected.svg"
   inkscape:export-filename="..\TV system selection, NTSC selected.png"
   inkscape:export-xdpi="96"
   inkscape:export-ydpi="96"
   xmlns:inkscape="http://www.inkscape.org/namespaces/inkscape"
   xmlns:sodipodi="http://sodipodi.sourceforge.net/DTD/sodipodi-0.dtd"
   xmlns="http://www.w3.org/2000/svg"
   xmlns:svg="http://www.w3.org/2000/svg"
   xmlns:sketch="http://www.bohemiancoding.com/sketch/ns"><sodipodi:namedview
     id="namedview1"
     pagecolor="#ffffff"
     bordercolor="#000000"
     borderopacity="0.25"
     inkscape:showpageshadow="2"
     inkscape:pageopacity="0.0"
     inkscape:pagecheckerboard="0"
     inkscape:deskcolor="#d1d1d1"
     inkscape:document-units="mm"
     inkscape:zoom="1.8035714"
     inkscape:cx="319.9208"
     inkscape:cy="139.44555"
     inkscape:window-width="1366"
     inkscape:window-height="697"
     inkscape:window-x="-8"
     inkscape:window-y="-8"
     inkscape:window-maximized="1"
     inkscape:current-layer="layer1" /><defs
     id="defs1" /><g
     inkscape:label="Camada 1"
     inkscape:groupmode="layer"
     id="layer1"><rect
       style="fill:#000000;stroke-width:0.682639"
       id="rect1"
       width="169.33333"
       height="74.083336"
       x="2.5431316e-06"
       y="-1.2715658e-06" /><path
       d="m 35.403054,29.679616 c -2.023325,0 -3.663234,-1.616275 -3.663234,-3.610439 0,-1.994167 1.639909,-3.61044 3.663234,-3.61044 2.023326,0 3.663233,1.616273 3.663233,3.61044 0,1.994164 -1.639907,3.610439 -3.663233,3.610439 z m 2.442155,8.424358 h -4.88431 c -0.675257,0 -1.221079,-0.537957 -1.221079,-1.203479 0,-0.665524 0.545822,-1.20348 1.221079,-1.20348 h 4.88431 c 0.675257,0 1.221078,0.537956 1.221078,1.20348 0,0.665522 -0.545821,1.203479 -1.221078,1.203479 z m 0,3.610438 h -4.88431 c -0.675257,0 -1.221079,-0.537955 -1.221079,-1.203479 0,-0.665523 0.545822,-1.203479 1.221079,-1.203479 h 4.88431 c 0.675257,0 1.221078,0.537956 1.221078,1.203479 0,0.665524 -0.545821,1.203479 -1.221078,1.203479 z m -8.547543,-2.406958 c 0,1.328642 -1.094087,2.406958 -2.442156,2.406958 H 12.202576 c -1.34807,0 -2.4421558,-1.078316 -2.4421558,-2.406958 V 24.865697 c 0,-1.328641 1.0940858,-2.40696 2.4421558,-2.40696 H 26.85551 c 1.348069,0 2.442156,1.078319 2.442156,2.40696 z M 39.066287,17.64482 H 27.766433 l 10.711295,-7.263001 c 0.56536,-0.3839093 0.726541,-1.1757985 0.36022,-1.767911 -0.365103,-0.5921108 -1.12095,-0.7618031 -1.687532,-0.3778917 0,0 -11.734557,7.9850867 -12.726073,8.5747897 L 11.676291,8.2360163 C 11.110932,7.8521049 10.353864,8.0217972 9.9887623,8.613908 9.6224383,9.2060205 9.7836211,9.9979097 10.348979,10.381819 L 21.060274,17.64482 H 9.7604202 c -2.6973612,0 -4.8843117,2.155431 -4.8843117,4.813917 v 19.255675 c 0,2.658489 2.1869505,4.813922 4.8843117,4.813922 H 39.066287 c 2.697361,0 4.88431,-2.155433 4.88431,-4.813922 V 22.458737 c 0,-2.658486 -2.186949,-4.813917 -4.88431,-4.813917 z m -4.884311,9.627837 h 2.442158 v -2.40696 h -2.442158 z m -8.547543,-2.40696 h -12.21078 c -0.675255,0 -1.221077,0.53916 -1.221077,1.20348 v 12.034797 c 0,0.665526 0.545822,1.20348 1.221077,1.20348 h 12.21078 c 0.675256,0 1.221077,-0.537954 1.221077,-1.20348 V 26.069177 c 0,-0.66432 -0.545821,-1.20348 -1.221077,-1.20348 z"
       id="tv-television"
       sketch:type="MSShapeGroup"
       style="fill:#008000;fill-opacity:1;fill-rule:evenodd;stroke:none;stroke-width:1.21224" /><text
       xml:space="preserve"
       style="font-size:16.2962px;font-family:'Changa One';-inkscape-font-specification:'Changa One';fill:#ffff00;stroke-width:0.407403"
       x="3.581789"
       y="70.571152"
       id="text1"
       transform="scale(1.1090525,0.90167059)"><tspan
         sodipodi:role="line"
         id="tspan1"
         style="stroke-width:0.407403;fill:#ffff00"
         x="3.581789"
         y="70.571152">NTSC</tspan></text><text
       xml:space="preserve"
       style="font-size:11.1169px;font-family:'Changa One';-inkscape-font-specification:'Changa One';fill:#ffff00;fill-opacity:1;stroke-width:0.277921"
       x="68.565697"
       y="19.839323"
       id="text2"
       transform="scale(1.1008384,0.90839855)"><tspan
         sodipodi:role="line"
         id="tspan2"
         style="fill:#ffff00;fill-opacity:1;stroke-width:0.277921"
         x="68.565697"
         y="19.839323">NTSC</tspan></text><g
       id="g2"
       transform="matrix(0.09979752,0,0,0.27184466,50.589751,21.091937)"
       style="fill:#008000;fill-opacity:1"><rect
         style="fill:#008000;fill-opacity:1;stroke:none;stroke-width:0.529167"
         id="rect2"
         width="45.0933"
         height="9.5319166"
         x="20.665169"
         y="-26.390085"
         rx="0.79374999" /><path
         sodipodi:type="star"
         style="fill:#008000;fill-opacity:1;stroke:none;stroke-width:0.529167"
         id="path2"
         inkscape:flatsided="true"
         sodipodi:sides="3"
         sodipodi:cx="74.422272"
         sodipodi:cy="-26.579386"
         sodipodi:r1="19.371559"
         sodipodi:r2="9.6857805"
         sodipodi:arg1="2.0852476"
         sodipodi:arg2="3.1324452"
         inkscape:rounded="0.1"
         inkscape:randomized="0"
         d="m 64.890356,-9.7152259 c -2.920958,-1.6509761 -3.197184,-31.8469851 -0.306917,-33.5511211 2.890266,-1.704136 29.17889,13.15465 29.209581,16.509762 0.03069,3.355112 -25.981706,18.6923353 -28.902664,17.0413591 z"
         inkscape:transform-center-x="-4.7659708"
         inkscape:transform-center-y="0.03825657"
         transform="matrix(1.0000017,0,0,0.43179737,-6.8480027,-10.182919)" /></g><text
       xml:space="preserve"
       style="font-size:11.1169px;font-family:'Changa One';-inkscape-font-specification:'Changa One';fill:#ffffff;stroke-width:0.277921"
       x="68.565697"
       y="29.15976"
       id="text4"
       transform="scale(1.1008384,0.90839855)"><tspan
         sodipodi:role="line"
         id="tspan4"
         style="stroke-width:0.277921"
         x="68.565697"
         y="29.15976">PAL</tspan></text></g></svg>
